<svg width="17" height="16" viewBox="0 0 17 16" fill="none" xmlns="http://www.w3.org/2000/svg">
<path d="M8.83146 6.85417H16.5391C16.6241 7.31944 16.6667 7.76389 16.6667 8.1875C16.6667 9.69444 16.3442 11.0399 15.6992 12.224C15.0543 13.408 14.1347 14.3333 12.9404 15C11.7462 15.6667 10.3765 16 8.83146 16C7.71872 16 6.65914 15.7899 5.65272 15.3698C4.6463 14.9497 3.77808 14.3819 3.04807 13.6667C2.31806 12.9514 1.73865 12.1007 1.30986 11.1146C0.881068 10.1285 0.666672 9.09028 0.666672 8C0.666672 6.90972 0.881068 5.87153 1.30986 4.88542C1.73865 3.89931 2.31806 3.04861 3.04807 2.33333C3.77808 1.61806 4.6463 1.05035 5.65272 0.630208C6.65914 0.210069 7.71872 0 8.83146 0C10.9577 0 12.7827 0.697917 14.3065 2.09375L12.0846 4.1875C11.2129 3.36111 10.1285 2.94792 8.83146 2.94792C7.91717 2.94792 7.07199 3.17361 6.29591 3.625C5.51983 4.07639 4.90499 4.68924 4.45139 5.46354C3.99779 6.23785 3.77099 7.08333 3.77099 8C3.77099 8.91667 3.99779 9.76215 4.45139 10.5365C4.90499 11.3108 5.51983 11.9236 6.29591 12.375C7.07199 12.8264 7.91717 13.0521 8.83146 13.0521C9.44807 13.0521 10.0151 12.9688 10.5325 12.8021C11.0498 12.6354 11.4751 12.4271 11.8082 12.1771C12.1413 11.9271 12.4319 11.6424 12.68 11.3229C12.928 11.0035 13.1105 10.7014 13.2275 10.4167C13.3444 10.1319 13.4241 9.86111 13.4667 9.60417H8.83146V6.85417Z" fill="#63EFAF"/>
</svg>
