<svg width="20" height="16" viewBox="0 0 20 16" fill="none" xmlns="http://www.w3.org/2000/svg">
<path d="M20 1.89305C19.2639 2.21429 18.4741 2.43216 17.6442 2.52942C18.4915 2.02968 19.1402 1.23702 19.4476 0.295398C18.6528 0.758193 17.7754 1.09424 16.8406 1.27641C16.092 0.489895 15.0272 0 13.8461 0C11.5803 0 9.74314 1.80937 9.74314 4.03969C9.74314 4.35601 9.77938 4.66496 9.84938 4.96039C6.44003 4.79174 3.41685 3.18301 1.39348 0.738495C1.03979 1.33425 0.838579 2.02842 0.838579 2.76943C0.838579 4.1714 1.56345 5.40841 2.66325 6.13213C1.99087 6.10999 1.35848 5.92782 0.804853 5.62502V5.67549C0.804853 7.63256 2.21959 9.2659 4.09548 9.63764C3.75179 9.72873 3.38937 9.7792 3.01443 9.7792C2.7495 9.7792 2.49329 9.75335 2.24208 9.70411C2.76446 11.3104 4.2792 12.4785 6.07388 12.5105C4.67038 13.5937 2.90071 14.2374 0.978579 14.2374C0.647402 14.2374 0.321192 14.2177 1.52588e-05 14.182C1.81593 15.3304 3.97179 16 6.28885 16C13.8362 16 17.9617 9.84321 17.9617 4.50374L17.9479 3.98063C18.754 3.41439 19.4514 2.70297 20 1.89305Z" fill="#63EFAF"/>
</svg>
