<svg width="18" height="13" viewBox="0 0 18 13" fill="none" xmlns="http://www.w3.org/2000/svg">
<path fill-rule="evenodd" clip-rule="evenodd" d="M8.59483 10.8621C6.16752 10.8621 3.61718 9.38659 1.62534 6.18103C3.61718 2.97548 6.16752 1.5 8.59483 1.5C11.0221 1.5 13.5725 2.97548 15.5643 6.18104C13.5725 9.38659 11.0221 10.8621 8.59483 10.8621ZM17.0875 5.80313C14.8862 2.02943 11.8068 0 8.59483 0C5.38282 0 2.30349 2.02943 0.102166 5.80313C-0.0340553 6.03665 -0.0340553 6.32541 0.102166 6.55894C2.30349 10.3326 5.38282 12.3621 8.59483 12.3621C11.8068 12.3621 14.8862 10.3326 17.0875 6.55894C17.2237 6.32542 17.2237 6.03665 17.0875 5.80313ZM8.59483 9.80172C10.5945 9.80172 12.2155 8.18069 12.2155 6.18103C12.2155 4.18138 10.5945 2.56034 8.59483 2.56034C6.59518 2.56034 4.97414 4.18138 4.97414 6.18103C4.97414 8.18069 6.59518 9.80172 8.59483 9.80172Z" fill="#6C7684"/>
</svg>
