<svg width="15" height="14" viewBox="0 0 15 14" fill="none" xmlns="http://www.w3.org/2000/svg">
<path d="M1.75 1L13.75 13" stroke="#6C7684" stroke-width="1.5" stroke-linecap="round" stroke-linejoin="round"/>
<path fill-rule="evenodd" clip-rule="evenodd" d="M2.50316 4.81382C2.31094 4.6216 1.99946 4.61739 1.8122 4.81446C1.19239 5.46676 0.61785 6.23807 0.102166 7.12209C-0.0340553 7.35562 -0.0340553 7.64438 0.102166 7.8779C1.94142 11.0309 4.52937 12.75 7.25 12.75C7.90887 12.75 8.55996 12.6492 9.19451 12.4516C9.53178 12.3466 9.61381 11.9245 9.36404 11.6747L8.92899 11.2397C8.79833 11.109 8.6067 11.063 8.42718 11.1068C8.03289 11.2029 7.63901 11.25 7.25 11.25C5.38016 11.25 3.39769 10.1626 1.79849 7.76463C1.69166 7.60444 1.69154 7.39574 1.79836 7.23556C2.13532 6.73029 2.48929 6.2832 2.85564 5.8922C3.04798 5.68692 3.05323 5.36389 2.85432 5.16498L2.50316 4.81382ZM4.95534 7.266C4.69044 7.0011 4.25 7.12537 4.25 7.5C4.25 9.15685 5.59315 10.5 7.25 10.5C7.62463 10.5 7.7489 10.0596 7.484 9.79466L4.95534 7.266ZM9.72276 9.19916C9.56459 9.4289 9.24005 9.42939 9.04282 9.23216L5.51784 5.70718C5.32061 5.50995 5.3211 5.18541 5.55084 5.02724C6.03388 4.69468 6.61921 4.5 7.25 4.5C8.90685 4.5 10.25 5.84315 10.25 7.5C10.25 8.13079 10.0553 8.71612 9.72276 9.19916ZM10.604 10.7933C10.3778 10.5672 10.4197 10.1898 10.6731 9.99465C11.3883 9.44387 12.0744 8.70497 12.7016 7.76449C12.8084 7.6043 12.8083 7.39555 12.7015 7.23537C11.1023 4.83744 9.11984 3.75 7.25 3.75C6.42575 3.75 5.5796 3.96131 4.75405 4.40304C4.5496 4.51243 4.29539 4.48474 4.13143 4.32077L3.75394 3.94328C3.53224 3.72158 3.56664 3.35177 3.83823 3.19511C4.91716 2.57277 6.07112 2.25 7.25 2.25C9.97063 2.25 12.5586 3.96908 14.3978 7.1221C14.5341 7.35562 14.5341 7.64438 14.3978 7.8779C13.5872 9.2676 12.6311 10.3787 11.5823 11.1869C11.3905 11.3347 11.1202 11.3096 10.949 11.1384L10.604 10.7933Z" fill="#6C7684"/>
</svg>
